<?xml version="1.0" encoding="UTF-8" standalone="no"?><svg xmlns="http://www.w3.org/2000/svg" xmlns:xlink="http://www.w3.org/1999/xlink" contentStyleType="text/css" height="775px" preserveAspectRatio="none" style="width:494px;height:775px;background:#FFFFFF;" version="1.1" viewBox="0 0 494 775" width="494px" zoomAndPan="magnify"><defs/><g><!--MD5=[f83bf85ed08ec968412e8d5170754f2a]
class BaseUdp--><g id="elem_BaseUdp"><rect codeLine="2" fill="#F1F1F1" height="67.1201" id="BaseUdp" rx="2.5" ry="2.5" style="stroke:#181818;stroke-width:0.5;" width="89" x="204.5" y="488"/><ellipse cx="219.5" cy="504" fill="#ADD1B2" rx="11" ry="11" style="stroke:#181818;stroke-width:1.0;"/><path d="M218.0781,509.3594 Q216.2188,509.3594 215.125,507.9688 Q214.0313,506.5781 214.0313,503.5938 Q214.0313,501.0625 215.1953,499.4063 Q216.3594,497.75 218.3438,497.75 Q219.8125,497.75 220.2813,497.875 Q220.75,498.0781 220.75,498.0781 Q220.75,498.0781 220.75,498.0078 Q220.75,497.9375 221.3594,497.0156 L222.4063,500.6719 L221.0781,501.0781 Q220.6094,499.5313 219.9453,498.8672 Q219.2813,498.2031 218.2188,498.2031 Q217.8281,498.2031 217.0625,499.7344 Q216.2969,501.2656 216.2969,503.5156 Q216.2969,505.9844 216.9609,507.375 Q217.625,508.7656 218.1563,508.7656 Q219.2188,508.7656 219.9766,508 Q220.7344,507.2344 221.0781,505.5781 L222.4063,506.1719 Q222.0781,507.5781 221.1797,508.4688 Q220.2813,509.3594 218.0781,509.3594 Z " fill="#000000"/><text fill="#000000" font-family="sans-serif" font-size="14" lengthAdjust="spacing" textLength="57" x="233.5" y="510.4839">BaseUdp</text><line style="stroke:#181818;stroke-width:0.5;" x1="205.5" x2="292.5" y1="520" y2="520"/><line style="stroke:#181818;stroke-width:0.5;" x1="205.5" x2="292.5" y1="528" y2="528"/><ellipse cx="215.5" cy="543.0601" fill="#84BE84" rx="3" ry="3" style="stroke:#038048;stroke-width:1.0;"/><text fill="#000000" font-family="sans-serif" font-size="14" lengthAdjust="spacing" textLength="39" x="224.5" y="548.0439">write()</text></g><!--MD5=[c9cd79131da610b90176c146d68cd99a]
class ServerSocket--><g id="elem_ServerSocket"><rect codeLine="6" fill="#F1F1F1" height="67.1201" id="ServerSocket" rx="2.5" ry="2.5" style="stroke:#181818;stroke-width:0.5;" width="117" x="90.5" y="701"/><ellipse cx="105.5" cy="717" fill="#ADD1B2" rx="11" ry="11" style="stroke:#181818;stroke-width:1.0;"/><path d="M104.0781,722.3594 Q102.2188,722.3594 101.125,720.9688 Q100.0313,719.5781 100.0313,716.5938 Q100.0313,714.0625 101.1953,712.4063 Q102.3594,710.75 104.3438,710.75 Q105.8125,710.75 106.2813,710.875 Q106.75,711.0781 106.75,711.0781 Q106.75,711.0781 106.75,711.0078 Q106.75,710.9375 107.3594,710.0156 L108.4063,713.6719 L107.0781,714.0781 Q106.6094,712.5313 105.9453,711.8672 Q105.2813,711.2031 104.2188,711.2031 Q103.8281,711.2031 103.0625,712.7344 Q102.2969,714.2656 102.2969,716.5156 Q102.2969,718.9844 102.9609,720.375 Q103.625,721.7656 104.1563,721.7656 Q105.2188,721.7656 105.9766,721 Q106.7344,720.2344 107.0781,718.5781 L108.4063,719.1719 Q108.0781,720.5781 107.1797,721.4688 Q106.2813,722.3594 104.0781,722.3594 Z " fill="#000000"/><text fill="#000000" font-family="sans-serif" font-size="14" lengthAdjust="spacing" textLength="85" x="119.5" y="723.4839">ServerSocket</text><line style="stroke:#181818;stroke-width:0.5;" x1="91.5" x2="206.5" y1="733" y2="733"/><line style="stroke:#181818;stroke-width:0.5;" x1="91.5" x2="206.5" y1="741" y2="741"/><ellipse cx="101.5" cy="756.0601" fill="#84BE84" rx="3" ry="3" style="stroke:#038048;stroke-width:1.0;"/><text fill="#000000" font-family="sans-serif" font-size="14" lengthAdjust="spacing" textLength="39" x="110.5" y="761.0439">write()</text></g><!--MD5=[d8a7c0cf30beda366481c82f6977d201]
class ClientSocket--><g id="elem_ClientSocket"><rect codeLine="10" fill="#F1F1F1" height="67.1201" id="ClientSocket" rx="2.5" ry="2.5" style="stroke:#181818;stroke-width:0.5;" width="111" x="248.5" y="701"/><ellipse cx="263.5" cy="717" fill="#ADD1B2" rx="11" ry="11" style="stroke:#181818;stroke-width:1.0;"/><path d="M262.0781,722.3594 Q260.2188,722.3594 259.125,720.9688 Q258.0313,719.5781 258.0313,716.5938 Q258.0313,714.0625 259.1953,712.4063 Q260.3594,710.75 262.3438,710.75 Q263.8125,710.75 264.2813,710.875 Q264.75,711.0781 264.75,711.0781 Q264.75,711.0781 264.75,711.0078 Q264.75,710.9375 265.3594,710.0156 L266.4063,713.6719 L265.0781,714.0781 Q264.6094,712.5313 263.9453,711.8672 Q263.2813,711.2031 262.2188,711.2031 Q261.8281,711.2031 261.0625,712.7344 Q260.2969,714.2656 260.2969,716.5156 Q260.2969,718.9844 260.9609,720.375 Q261.625,721.7656 262.1563,721.7656 Q263.2188,721.7656 263.9766,721 Q264.7344,720.2344 265.0781,718.5781 L266.4063,719.1719 Q266.0781,720.5781 265.1797,721.4688 Q264.2813,722.3594 262.0781,722.3594 Z " fill="#000000"/><text fill="#000000" font-family="sans-serif" font-size="14" lengthAdjust="spacing" textLength="79" x="277.5" y="723.4839">ClientSocket</text><line style="stroke:#181818;stroke-width:0.5;" x1="249.5" x2="358.5" y1="733" y2="733"/><line style="stroke:#181818;stroke-width:0.5;" x1="249.5" x2="358.5" y1="741" y2="741"/><ellipse cx="259.5" cy="756.0601" fill="#84BE84" rx="3" ry="3" style="stroke:#038048;stroke-width:1.0;"/><text fill="#000000" font-family="sans-serif" font-size="14" lengthAdjust="spacing" textLength="39" x="268.5" y="761.0439">write()</text></g><!--MD5=[07222359978126e4a1d908855813567d]
class TFtp--><g id="elem_TFtp"><rect codeLine="14" fill="#F1F1F1" height="334.8018" id="TFtp" rx="2.5" ry="2.5" style="stroke:#181818;stroke-width:0.5;" width="118" x="188" y="7"/><ellipse cx="228.2" cy="23" fill="#ADD1B2" rx="11" ry="11" style="stroke:#181818;stroke-width:1.0;"/><path d="M226.7781,28.3594 Q224.9188,28.3594 223.825,26.9688 Q222.7313,25.5781 222.7313,22.5938 Q222.7313,20.0625 223.8953,18.4063 Q225.0594,16.75 227.0438,16.75 Q228.5125,16.75 228.9813,16.875 Q229.45,17.0781 229.45,17.0781 Q229.45,17.0781 229.45,17.0078 Q229.45,16.9375 230.0594,16.0156 L231.1063,19.6719 L229.7781,20.0781 Q229.3094,18.5313 228.6453,17.8672 Q227.9813,17.2031 226.9188,17.2031 Q226.5281,17.2031 225.7625,18.7344 Q224.9969,20.2656 224.9969,22.5156 Q224.9969,24.9844 225.6609,26.375 Q226.325,27.7656 226.8563,27.7656 Q227.9188,27.7656 228.6766,27 Q229.4344,26.2344 229.7781,24.5781 L231.1063,25.1719 Q230.7781,26.5781 229.8797,27.4688 Q228.9813,28.3594 226.7781,28.3594 Z " fill="#000000"/><text fill="#000000" font-family="sans-serif" font-size="14" lengthAdjust="spacing" textLength="30" x="247.8" y="29.4839">TFtp</text><line style="stroke:#181818;stroke-width:0.5;" x1="189" x2="305" y1="39" y2="39"/><line style="stroke:#181818;stroke-width:0.5;" x1="189" x2="305" y1="47" y2="47"/><ellipse cx="199" cy="62.0601" fill="#84BE84" rx="3" ry="3" style="stroke:#038048;stroke-width:1.0;"/><text fill="#000000" font-family="sans-serif" font-size="14" lengthAdjust="spacing" textLength="60" x="208" y="67.0439">process()</text><text fill="#000000" font-family="sans-serif" font-size="14" lengthAdjust="spacing" textLength="4" x="208" y="86.1641"> </text><polygon fill="#FFFF44" points="199,95.3003,203,99.3003,199,103.3003,195,99.3003" style="stroke:#B38D22;stroke-width:1.0;"/><text fill="#000000" font-family="sans-serif" font-size="14" lengthAdjust="spacing" textLength="92" x="208" y="105.2842">on_read_req()</text><polygon fill="#FFFF44" points="199,114.4204,203,118.4204,199,122.4204,195,118.4204" style="stroke:#B38D22;stroke-width:1.0;"/><text fill="#000000" font-family="sans-serif" font-size="14" lengthAdjust="spacing" textLength="92" x="208" y="124.4043">on_write_req()</text><polygon fill="#FFFF44" points="199,133.5405,203,137.5405,199,141.5405,195,137.5405" style="stroke:#B38D22;stroke-width:1.0;"/><text fill="#000000" font-family="sans-serif" font-size="14" lengthAdjust="spacing" textLength="62" x="208" y="143.5244">on_data()</text><polygon fill="#FFFF44" points="199,152.6606,203,156.6606,199,160.6606,195,156.6606" style="stroke:#B38D22;stroke-width:1.0;"/><text fill="#000000" font-family="sans-serif" font-size="14" lengthAdjust="spacing" textLength="56" x="208" y="162.6445">on_ack()</text><polygon fill="#FFFF44" points="199,171.7808,203,175.7808,199,179.7808,195,175.7808" style="stroke:#B38D22;stroke-width:1.0;"/><text fill="#000000" font-family="sans-serif" font-size="14" lengthAdjust="spacing" textLength="65" x="208" y="181.7646">on_error()</text><polygon fill="#FFFF44" points="199,190.9009,203,194.9009,199,198.9009,195,194.9009" style="stroke:#B38D22;stroke-width:1.0;"/><text fill="#000000" font-family="sans-serif" font-size="14" lengthAdjust="spacing" textLength="39" x="208" y="200.8848">write()</text><text fill="#000000" font-family="sans-serif" font-size="14" lengthAdjust="spacing" textLength="4" x="208" y="220.0049"> </text><polygon fill="#FFFF44" points="199,229.1411,203,233.1411,199,237.1411,195,233.1411" style="stroke:#B38D22;stroke-width:1.0;"/><text fill="#000000" font-family="sans-serif" font-size="14" lengthAdjust="spacing" textLength="68" x="208" y="239.125">read_reg()</text><polygon fill="#FFFF44" points="199,248.2612,203,252.2612,199,256.2612,195,252.2612" style="stroke:#B38D22;stroke-width:1.0;"/><text fill="#000000" font-family="sans-serif" font-size="14" lengthAdjust="spacing" textLength="68" x="208" y="258.2451">write_req()</text><polygon fill="#FFFF44" points="199,267.3813,203,271.3813,199,275.3813,195,271.3813" style="stroke:#B38D22;stroke-width:1.0;"/><text fill="#000000" font-family="sans-serif" font-size="14" lengthAdjust="spacing" textLength="41" x="208" y="277.3652">send()</text><polygon fill="#FFFF44" points="199,286.5015,203,290.5015,199,294.5015,195,290.5015" style="stroke:#B38D22;stroke-width:1.0;"/><text fill="#000000" font-family="sans-serif" font-size="14" lengthAdjust="spacing" textLength="54" x="208" y="296.4854">resend()</text><polygon fill="#FFFF44" points="199,305.6216,203,309.6216,199,313.6216,195,309.6216" style="stroke:#B38D22;stroke-width:1.0;"/><text fill="#000000" font-family="sans-serif" font-size="14" lengthAdjust="spacing" textLength="32" x="208" y="315.6055">ack()</text><polygon fill="#FFFF44" points="199,324.7417,203,328.7417,199,332.7417,195,328.7417" style="stroke:#B38D22;stroke-width:1.0;"/><text fill="#000000" font-family="sans-serif" font-size="14" lengthAdjust="spacing" textLength="41" x="208" y="334.7256">error()</text></g><!--MD5=[8e63bef3ca43b7d9630d4cab036b1e8f]
class TFtpClientFile--><g id="elem_TFtpClientFile"><rect codeLine="32" fill="#F1F1F1" height="200.9609" id="TFtpClientFile" rx="2.5" ry="2.5" style="stroke:#181818;stroke-width:0.5;" width="121" x="328.5" y="421"/><ellipse cx="343.5" cy="437" fill="#ADD1B2" rx="11" ry="11" style="stroke:#181818;stroke-width:1.0;"/><path d="M342.0781,442.3594 Q340.2188,442.3594 339.125,440.9688 Q338.0313,439.5781 338.0313,436.5938 Q338.0313,434.0625 339.1953,432.4063 Q340.3594,430.75 342.3438,430.75 Q343.8125,430.75 344.2813,430.875 Q344.75,431.0781 344.75,431.0781 Q344.75,431.0781 344.75,431.0078 Q344.75,430.9375 345.3594,430.0156 L346.4063,433.6719 L345.0781,434.0781 Q344.6094,432.5313 343.9453,431.8672 Q343.2813,431.2031 342.2188,431.2031 Q341.8281,431.2031 341.0625,432.7344 Q340.2969,434.2656 340.2969,436.5156 Q340.2969,438.9844 340.9609,440.375 Q341.625,441.7656 342.1563,441.7656 Q343.2188,441.7656 343.9766,441 Q344.7344,440.2344 345.0781,438.5781 L346.4063,439.1719 Q346.0781,440.5781 345.1797,441.4688 Q344.2813,442.3594 342.0781,442.3594 Z " fill="#000000"/><text fill="#000000" font-family="sans-serif" font-size="14" lengthAdjust="spacing" textLength="89" x="357.5" y="443.4839">TFtpClientFile</text><line style="stroke:#181818;stroke-width:0.5;" x1="329.5" x2="448.5" y1="453" y2="453"/><rect fill="none" height="6" style="stroke:#C82930;stroke-width:1.0;" width="6" x="336.5" y="465.0601"/><text fill="#000000" font-family="sans-serif" font-size="14" lengthAdjust="spacing" textLength="89" x="348.5" y="473.0439">udp: BaseUdp</text><line style="stroke:#181818;stroke-width:0.5;" x1="329.5" x2="448.5" y1="480.1201" y2="480.1201"/><ellipse cx="339.5" cy="495.1802" fill="#84BE84" rx="3" ry="3" style="stroke:#038048;stroke-width:1.0;"/><text fill="#000000" font-family="sans-serif" font-size="14" lengthAdjust="spacing" textLength="53" x="348.5" y="500.1641">getFile()</text><ellipse cx="339.5" cy="514.3003" fill="#84BE84" rx="3" ry="3" style="stroke:#038048;stroke-width:1.0;"/><text fill="#000000" font-family="sans-serif" font-size="14" lengthAdjust="spacing" textLength="53" x="348.5" y="519.2842">putFile()</text><text fill="#000000" font-family="sans-serif" font-size="14" lengthAdjust="spacing" textLength="4" x="348.5" y="538.4043"> </text><polygon fill="#FFFF44" points="339.5,547.5405,343.5,551.5405,339.5,555.5405,335.5,551.5405" style="stroke:#B38D22;stroke-width:1.0;"/><text fill="#000000" font-family="sans-serif" font-size="14" lengthAdjust="spacing" textLength="62" x="348.5" y="557.5244">on_data()</text><polygon fill="#FFFF44" points="339.5,566.6606,343.5,570.6606,339.5,574.6606,335.5,570.6606" style="stroke:#B38D22;stroke-width:1.0;"/><text fill="#000000" font-family="sans-serif" font-size="14" lengthAdjust="spacing" textLength="56" x="348.5" y="576.6445">on_ack()</text><polygon fill="#FFFF44" points="339.5,585.7808,343.5,589.7808,339.5,593.7808,335.5,589.7808" style="stroke:#B38D22;stroke-width:1.0;"/><text fill="#000000" font-family="sans-serif" font-size="14" lengthAdjust="spacing" textLength="65" x="348.5" y="595.7646">on_error()</text><polygon fill="#FFFF44" points="339.5,604.9009,343.5,608.9009,339.5,612.9009,335.5,608.9009" style="stroke:#B38D22;stroke-width:1.0;"/><text fill="#000000" font-family="sans-serif" font-size="14" lengthAdjust="spacing" textLength="39" x="348.5" y="614.8848">write()</text></g><!--MD5=[5c6f43ab4ea5ac8acc18dba0efbe23b6]
class TFtpServerFile--><g id="elem_TFtpServerFile"><rect codeLine="44" fill="#F1F1F1" height="181.8408" id="TFtpServerFile" rx="2.5" ry="2.5" style="stroke:#181818;stroke-width:0.5;" width="127" x="42.5" y="430.5"/><ellipse cx="57.5" cy="446.5" fill="#ADD1B2" rx="11" ry="11" style="stroke:#181818;stroke-width:1.0;"/><path d="M56.0781,451.8594 Q54.2188,451.8594 53.125,450.4688 Q52.0313,449.0781 52.0313,446.0938 Q52.0313,443.5625 53.1953,441.9063 Q54.3594,440.25 56.3438,440.25 Q57.8125,440.25 58.2813,440.375 Q58.75,440.5781 58.75,440.5781 Q58.75,440.5781 58.75,440.5078 Q58.75,440.4375 59.3594,439.5156 L60.4063,443.1719 L59.0781,443.5781 Q58.6094,442.0313 57.9453,441.3672 Q57.2813,440.7031 56.2188,440.7031 Q55.8281,440.7031 55.0625,442.2344 Q54.2969,443.7656 54.2969,446.0156 Q54.2969,448.4844 54.9609,449.875 Q55.625,451.2656 56.1563,451.2656 Q57.2188,451.2656 57.9766,450.5 Q58.7344,449.7344 59.0781,448.0781 L60.4063,448.6719 Q60.0781,450.0781 59.1797,450.9688 Q58.2813,451.8594 56.0781,451.8594 Z " fill="#000000"/><text fill="#000000" font-family="sans-serif" font-size="14" lengthAdjust="spacing" textLength="95" x="71.5" y="452.9839">TFtpServerFile</text><line style="stroke:#181818;stroke-width:0.5;" x1="43.5" x2="168.5" y1="462.5" y2="462.5"/><rect fill="none" height="6" style="stroke:#C82930;stroke-width:1.0;" width="6" x="50.5" y="474.5601"/><text fill="#000000" font-family="sans-serif" font-size="14" lengthAdjust="spacing" textLength="89" x="62.5" y="482.5439">udp: BaseUdp</text><line style="stroke:#181818;stroke-width:0.5;" x1="43.5" x2="168.5" y1="489.6201" y2="489.6201"/><polygon fill="#FFFF44" points="53.5,499.6802,57.5,503.6802,53.5,507.6802,49.5,503.6802" style="stroke:#B38D22;stroke-width:1.0;"/><text fill="#000000" font-family="sans-serif" font-size="14" lengthAdjust="spacing" textLength="92" x="62.5" y="509.6641">on_read_req()</text><polygon fill="#FFFF44" points="53.5,518.8003,57.5,522.8003,53.5,526.8003,49.5,522.8003" style="stroke:#B38D22;stroke-width:1.0;"/><text fill="#000000" font-family="sans-serif" font-size="14" lengthAdjust="spacing" textLength="92" x="62.5" y="528.7842">on_write_req()</text><polygon fill="#FFFF44" points="53.5,537.9204,57.5,541.9204,53.5,545.9204,49.5,541.9204" style="stroke:#B38D22;stroke-width:1.0;"/><text fill="#000000" font-family="sans-serif" font-size="14" lengthAdjust="spacing" textLength="62" x="62.5" y="547.9043">on_data()</text><polygon fill="#FFFF44" points="53.5,557.0405,57.5,561.0405,53.5,565.0405,49.5,561.0405" style="stroke:#B38D22;stroke-width:1.0;"/><text fill="#000000" font-family="sans-serif" font-size="14" lengthAdjust="spacing" textLength="56" x="62.5" y="567.0244">on_ack()</text><polygon fill="#FFFF44" points="53.5,576.1606,57.5,580.1606,53.5,584.1606,49.5,580.1606" style="stroke:#B38D22;stroke-width:1.0;"/><text fill="#000000" font-family="sans-serif" font-size="14" lengthAdjust="spacing" textLength="65" x="62.5" y="586.1445">on_error()</text><polygon fill="#FFFF44" points="53.5,595.2808,57.5,599.2808,53.5,603.2808,49.5,599.2808" style="stroke:#B38D22;stroke-width:1.0;"/><text fill="#000000" font-family="sans-serif" font-size="14" lengthAdjust="spacing" textLength="39" x="62.5" y="605.2646">write()</text></g><!--MD5=[5e91ff8562b6f7a109b0edb495e20b60]
class TFtpServer--><g id="elem_TFtpServer"><rect codeLine="55" fill="#F1F1F1" height="124.4805" id="TFtpServer" rx="2.5" ry="2.5" style="stroke:#181818;stroke-width:0.5;" width="146" x="7" y="112.5"/><ellipse cx="40.9" cy="128.5" fill="#ADD1B2" rx="11" ry="11" style="stroke:#181818;stroke-width:1.0;"/><path d="M39.4781,133.8594 Q37.6188,133.8594 36.525,132.4688 Q35.4313,131.0781 35.4313,128.0938 Q35.4313,125.5625 36.5953,123.9063 Q37.7594,122.25 39.7438,122.25 Q41.2125,122.25 41.6813,122.375 Q42.15,122.5781 42.15,122.5781 Q42.15,122.5781 42.15,122.5078 Q42.15,122.4375 42.7594,121.5156 L43.8063,125.1719 L42.4781,125.5781 Q42.0094,124.0313 41.3453,123.3672 Q40.6813,122.7031 39.6188,122.7031 Q39.2281,122.7031 38.4625,124.2344 Q37.6969,125.7656 37.6969,128.0156 Q37.6969,130.4844 38.3609,131.875 Q39.025,133.2656 39.5563,133.2656 Q40.6188,133.2656 41.3766,132.5 Q42.1344,131.7344 42.4781,130.0781 L43.8063,130.6719 Q43.4781,132.0781 42.5797,132.9688 Q41.6813,133.8594 39.4781,133.8594 Z " fill="#000000"/><text fill="#000000" font-family="sans-serif" font-size="14" lengthAdjust="spacing" textLength="72" x="59.1" y="134.9839">TFtpServer</text><line style="stroke:#181818;stroke-width:0.5;" x1="8" x2="152" y1="144.5" y2="144.5"/><rect fill="none" height="6" style="stroke:#C82930;stroke-width:1.0;" width="6" x="15" y="156.5601"/><text fill="#000000" font-family="sans-serif" font-size="14" lengthAdjust="spacing" textLength="120" x="27" y="164.5439">socket: UDPSocket</text><line style="stroke:#181818;stroke-width:0.5;" x1="8" x2="152" y1="171.6201" y2="171.6201"/><ellipse cx="18" cy="186.6802" fill="#84BE84" rx="3" ry="3" style="stroke:#038048;stroke-width:1.0;"/><text fill="#000000" font-family="sans-serif" font-size="14" lengthAdjust="spacing" textLength="81" x="27" y="191.6641">setFilePath()</text><ellipse cx="18" cy="205.8003" fill="#84BE84" rx="3" ry="3" style="stroke:#038048;stroke-width:1.0;"/><text fill="#000000" font-family="sans-serif" font-size="14" lengthAdjust="spacing" textLength="38" x="27" y="210.7842">start()</text><ellipse cx="18" cy="224.9204" fill="#84BE84" rx="3" ry="3" style="stroke:#038048;stroke-width:1.0;"/><text fill="#000000" font-family="sans-serif" font-size="14" lengthAdjust="spacing" textLength="37" x="27" y="229.9043">stop()</text></g><!--MD5=[10159ccde42ddd5b2ab32c7255ddb135]
class TFtpClient--><g id="elem_TFtpClient"><rect codeLine="62" fill="#F1F1F1" height="124.4805" id="TFtpClient" rx="2.5" ry="2.5" style="stroke:#181818;stroke-width:0.5;" width="146" x="341" y="112.5"/><ellipse cx="377.6" cy="128.5" fill="#ADD1B2" rx="11" ry="11" style="stroke:#181818;stroke-width:1.0;"/><path d="M376.1781,133.8594 Q374.3188,133.8594 373.225,132.4688 Q372.1313,131.0781 372.1313,128.0938 Q372.1313,125.5625 373.2953,123.9063 Q374.4594,122.25 376.4438,122.25 Q377.9125,122.25 378.3813,122.375 Q378.85,122.5781 378.85,122.5781 Q378.85,122.5781 378.85,122.5078 Q378.85,122.4375 379.4594,121.5156 L380.5063,125.1719 L379.1781,125.5781 Q378.7094,124.0313 378.0453,123.3672 Q377.3813,122.7031 376.3188,122.7031 Q375.9281,122.7031 375.1625,124.2344 Q374.3969,125.7656 374.3969,128.0156 Q374.3969,130.4844 375.0609,131.875 Q375.725,133.2656 376.2563,133.2656 Q377.3188,133.2656 378.0766,132.5 Q378.8344,131.7344 379.1781,130.0781 L380.5063,130.6719 Q380.1781,132.0781 379.2797,132.9688 Q378.3813,133.8594 376.1781,133.8594 Z " fill="#000000"/><text fill="#000000" font-family="sans-serif" font-size="14" lengthAdjust="spacing" textLength="66" x="396.4" y="134.9839">TFtpClient</text><line style="stroke:#181818;stroke-width:0.5;" x1="342" x2="486" y1="144.5" y2="144.5"/><rect fill="none" height="6" style="stroke:#C82930;stroke-width:1.0;" width="6" x="349" y="156.5601"/><text fill="#000000" font-family="sans-serif" font-size="14" lengthAdjust="spacing" textLength="120" x="361" y="164.5439">socket: UDPSocket</text><line style="stroke:#181818;stroke-width:0.5;" x1="342" x2="486" y1="171.6201" y2="171.6201"/><ellipse cx="352" cy="186.6802" fill="#84BE84" rx="3" ry="3" style="stroke:#038048;stroke-width:1.0;"/><text fill="#000000" font-family="sans-serif" font-size="14" lengthAdjust="spacing" textLength="83" x="361" y="191.6641">setHostPort()</text><ellipse cx="352" cy="205.8003" fill="#84BE84" rx="3" ry="3" style="stroke:#038048;stroke-width:1.0;"/><text fill="#000000" font-family="sans-serif" font-size="14" lengthAdjust="spacing" textLength="53" x="361" y="210.7842">getFile()</text><ellipse cx="352" cy="224.9204" fill="#84BE84" rx="3" ry="3" style="stroke:#038048;stroke-width:1.0;"/><text fill="#000000" font-family="sans-serif" font-size="14" lengthAdjust="spacing" textLength="53" x="361" y="229.9043">putFile()</text></g><!--MD5=[9fa58cb664793d3fdf279feb876eef3d]
reverse link BaseUdp to ServerSocket--><g id="link_BaseUdp_ServerSocket"><path codeLine="69" d="M233.84,575.39 C224.51,604.47 211.23,640.69 195,671 C189.59,681.1 182.71,691.38 175.92,700.61 " fill="none" id="BaseUdp-backto-ServerSocket" style="stroke:#181818;stroke-width:1.0;"/><polygon fill="none" points="227.03,573.71,239.61,556.66,240.41,577.83,227.03,573.71" style="stroke:#181818;stroke-width:1.0;"/></g><!--MD5=[744ebb1a37b2545736a1deffc665ed1c]
reverse link BaseUdp to ClientSocket--><g id="link_BaseUdp_ClientSocket"><path codeLine="70" d="M262.96,576.06 C273.21,615.36 286.79,667.48 295.47,700.76 " fill="none" id="BaseUdp-backto-ClientSocket" style="stroke:#181818;stroke-width:1.0;"/><polygon fill="none" points="256.25,578.05,257.98,556.93,269.79,574.52,256.25,578.05" style="stroke:#181818;stroke-width:1.0;"/></g><!--MD5=[abd0149937893f46a632827da9ea88c5]
reverse link TFtp to TFtpServerFile--><g id="link_TFtp_TFtpServerFile"><path codeLine="72" d="M179.55,340.55 C166.88,371.53 154.09,402.83 142.81,430.44 " fill="none" id="TFtp-backto-TFtpServerFile" style="stroke:#181818;stroke-width:1.0;"/><polygon fill="none" points="172.99,338.08,187.04,322.21,185.95,343.37,172.99,338.08" style="stroke:#181818;stroke-width:1.0;"/></g><!--MD5=[bf4b5c039c374a2860470e93578904f7]
reverse link TFtp to TFtpClientFile--><g id="link_TFtp_TFtpClientFile"><path codeLine="73" d="M314.46,339.39 C325.86,367.09 337.38,395.09 347.85,420.51 " fill="none" id="TFtp-backto-TFtpClientFile" style="stroke:#181818;stroke-width:1.0;"/><polygon fill="none" points="308.11,342.37,306.97,321.21,321.06,337.04,308.11,342.37" style="stroke:#181818;stroke-width:1.0;"/></g><!--MD5=[5899b67e3b61c110e696b5c99114a70c]
reverse link TFtpServerFile to ServerSocket--><g id="link_TFtpServerFile_ServerSocket"><path codeLine="75" d="M127.27,626.88 C132.74,653.7 138.22,680.62 142.31,700.69 " fill="none" id="TFtpServerFile-backto-ServerSocket" style="stroke:#181818;stroke-width:1.0;"/><polygon fill="#181818" points="124.73,614.38,122.0103,621.0585,127.129,626.1378,129.8488,619.4592,124.73,614.38" style="stroke:#181818;stroke-width:1.0;"/><polygon fill="#000000" points="140.9983,666.7765,142.0721,657.3268,136.3126,658.5004,140.9983,666.7765" style="stroke:#000000;stroke-width:1.0;"/><text fill="#000000" font-family="sans-serif" font-size="13" lengthAdjust="spacing" textLength="37" x="149" y="667.8979">have 1</text></g><!--MD5=[c42006aab05bc9be1ecb6c835b188c3b]
reverse link TFtpClientFile to ClientSocket--><g id="link_TFtpClientFile_ClientSocket"><path codeLine="76" d="M343.39,635.73 C333.77,659.61 324.36,682.96 317.16,700.84 " fill="none" id="TFtpClientFile-backto-ClientSocket" style="stroke:#181818;stroke-width:1.0;"/><polygon fill="#181818" points="348.17,623.84,342.2178,627.9107,343.686,634.9708,349.6383,630.9,348.17,623.84" style="stroke:#181818;stroke-width:1.0;"/><polygon fill="#000000" points="339.1316,666.515,345.2376,659.2233,339.7855,657.0269,339.1316,666.515" style="stroke:#000000;stroke-width:1.0;"/><text fill="#000000" font-family="sans-serif" font-size="13" lengthAdjust="spacing" textLength="37" x="350" y="667.8979">have 1</text></g><!--MD5=[5354c67b0558828c73d2b86021324074]
reverse link TFtpServer to TFtpServerFile--><g id="link_TFtpServer_TFtpServerFile"><path codeLine="78" d="M85.7,251.16 C89.68,303.93 95,374.58 99.2,430.28 " fill="none" id="TFtpServer-backto-TFtpServerFile" style="stroke:#181818;stroke-width:1.0;"/><polygon fill="#181818" points="84.73,238.29,81.1961,244.5758,85.6393,250.2555,89.1731,243.9697,84.73,238.29" style="stroke:#181818;stroke-width:1.0;"/><polygon fill="#000000" points="101.3758,386.8631,103.6266,377.6227,97.7654,378.0644,101.3758,386.8631" style="stroke:#000000;stroke-width:1.0;"/><text fill="#000000" font-family="sans-serif" font-size="13" lengthAdjust="spacing" textLength="37" x="110" y="387.8979">have n</text></g><!--MD5=[fda9d134fb762b6d5730d2edbeec328d]
reverse link TFtpClient to TFtpClientFile--><g id="link_TFtpClient_TFtpClientFile"><path codeLine="79" d="M408.53,251.03 C404.92,300.79 400.16,366.51 396.24,420.59 " fill="none" id="TFtpClient-backto-TFtpClientFile" style="stroke:#181818;stroke-width:1.0;"/><polygon fill="#181818" points="409.45,238.29,405.0255,243.9842,408.58,250.2584,413.0045,244.5642,409.45,238.29" style="stroke:#181818;stroke-width:1.0;"/><polygon fill="#000000" points="403.6385,386.8641,407.2237,378.0552,401.3612,377.6302,403.6385,386.8641" style="stroke:#000000;stroke-width:1.0;"/><text fill="#000000" font-family="sans-serif" font-size="13" lengthAdjust="spacing" textLength="37" x="413" y="387.8979">have 1</text></g><!--MD5=[76d8edab6af9bf87eaa6e087a0bfe029]
@startuml TftpClass

class BaseUdp {
    + write()
}

class ServerSocket {
    + write()
}

class ClientSocket {
    + write()
}

class TFtp {
    + process()

    # on_read_req()
    # on_write_req()
    # on_data()
    # on_ack()
    # on_error()
    # write()

    # read_reg()
    # write_req()
    # send()
    # resend()
    # ack()
    # error()
}

class TFtpClientFile {
    - udp: BaseUdp

    + getFile()
    + putFile()

    # on_data()
    # on_ack()
    # on_error()
    # write()
}

class TFtpServerFile {
    - udp: BaseUdp

    # on_read_req()
    # on_write_req()
    # on_data()
    # on_ack()
    # on_error()
    # write()
}

class TFtpServer {
    - socket: UDPSocket
    + setFilePath()
    + start()
    + stop()
}

class TFtpClient {
    - socket: UDPSocket
    + setHostPort()
    + getFile()
    + putFile()
}

BaseUdp <|- - ServerSocket
BaseUdp <|- - ClientSocket

TFtp <|- - TFtpServerFile
TFtp <|- - TFtpClientFile

TFtpServerFile *- - ServerSocket : have 1 >
TFtpClientFile *- - ClientSocket : have 1 >

TFtpServer *- - TFtpServerFile : have n >
TFtpClient *- - TFtpClientFile : have 1 >
@enduml

PlantUML version 1.2022.7(Tue Aug 23 01:01:30 CST 2022)
(GPL source distribution)
Java Runtime: Java(TM) SE Runtime Environment
JVM: Java HotSpot(TM) 64-Bit Server VM
Default Encoding: GBK
Language: zh
Country: CN
--></g></svg>